# xmcd CD database file
#
# Track frame offsets:
#	150
#	17951
#	35069
#	51247
#	68421
#	84022
#	101783
#	120416
#	133874
#	152088
#	168298
#	180011
#	193505
#
# Disc length: 2855 seconds
#
# Revision: 0
# Processed by: cddbd v1.5.2PL0 Copyright (c) Steve Scherf et al.
# Submitted via: CDex 1.51
#
DISCID=9d0b250d
DTITLE=Cash Box Kings - Holding Court
DYEAR=2015
DGENRE=Blues
TTITLE0=I Ain't Gonna Be No Monkey Man
TTITLE1=Download Blues
TTITLE2=Gotta Move Out To The Suburbs
TTITLE3=Cash Box Boogie
TTITLE4=Hobo Blues
TTITLE5=Baby Without You
TTITLE6=JuJu
TTITLE7=Everybody's Fishin' 
TTITLE8=Out On The Road
TTITLE9=Sugar Pea
TTITLE10=I Miss You Miss Anne
TTITLE11=I'm a Real Lover
TTITLE12=Quarter to Blue
EXTD=YEAR: 2015
EXTT0=
EXTT1=
EXTT2=
EXTT3=
EXTT4=
EXTT5=
EXTT6=
EXTT7=
EXTT8=
EXTT9=
EXTT10=
EXTT11=
EXTT12=
PLAYORDER=
